<?xml version="1.0" encoding="UTF-8" standalone="no"?>
<!-- Created with Inkscape (http://www.inkscape.org/) -->

<svg
   width="210mm"
   height="297mm"
   viewBox="0 0 210 297"
   version="1.1"
   id="svg5"
   xml:space="preserve"
   inkscape:version="1.2.2 (b0a8486541, 2022-12-01)"
   sodipodi:docname="briefkasten.svg"
   xmlns:inkscape="http://www.inkscape.org/namespaces/inkscape"
   xmlns:sodipodi="http://sodipodi.sourceforge.net/DTD/sodipodi-0.dtd"
   xmlns="http://www.w3.org/2000/svg"
   xmlns:svg="http://www.w3.org/2000/svg"><sodipodi:namedview
     id="namedview7"
     pagecolor="#ffffff"
     bordercolor="#000000"
     borderopacity="0.25"
     inkscape:showpageshadow="2"
     inkscape:pageopacity="0.0"
     inkscape:pagecheckerboard="0"
     inkscape:deskcolor="#d1d1d1"
     inkscape:document-units="mm"
     showgrid="false"
     inkscape:zoom="1.1893044"
     inkscape:cx="485.99837"
     inkscape:cy="324.13905"
     inkscape:window-width="1920"
     inkscape:window-height="1136"
     inkscape:window-x="0"
     inkscape:window-y="32"
     inkscape:window-maximized="1"
     inkscape:current-layer="layer1" /><defs
     id="defs2" /><g
     inkscape:label="Layer 1"
     inkscape:groupmode="layer"
     id="layer1"><path
       style="fill:#000000;stroke-width:0.352778"
       d="M 67.902408,122.86563 C 54.49958,118.58645 43.263781,105.49545 44.058004,90.956939 44.537268,78.321799 55.07169,68.064174 66.967317,65.246351 c 6.064992,-2.553328 8.758529,4.750106 13.142242,7.238948 7.828284,4.519853 17.266304,4.133383 25.977971,5.187882 10.41602,0.586748 20.92833,2.274309 31.32915,0.785984 5.28576,-0.693627 8.7043,-5.033424 11.84089,-8.874567 4.03961,-3.364736 10.15585,-1.961354 14.60464,-0.06413 12.33695,5.952678 18.13919,23.946562 9.1777,35.058332 -4.52473,6.36574 -12.012,12.56402 -20.33266,10.23373 -5.31617,-1.70987 -9.94779,-5.31644 -15.64915,-5.96211 -9.36193,-1.74954 -18.8184,0.49033 -28.22982,0.51986 -9.859983,0.40338 -20.223131,1.45778 -28.75945,6.81003 -3.079296,2.60155 -5.205868,7.46847 -10.00517,6.92998 -0.725809,-0.0195 -1.448107,-0.11151 -2.161252,-0.24466 z"
       id="path239" /></g></svg>
